<svg xmlns="http://www.w3.org/2000/svg" xmlns:xlink="http://www.w3.org/1999/xlink" viewBox="0,0,256,256" width="48px" height="48px" fill-rule="nonzero"><defs><radialGradient cx="24" cy="10.009" r="32.252" gradientUnits="userSpaceOnUse" id="color-1"><stop offset="0" stop-color="#8c9eff"></stop><stop offset="0.368" stop-color="#889af8"></stop><stop offset="0.889" stop-color="#7e8fe6"></stop><stop offset="1" stop-color="#7b8ce1"></stop></radialGradient></defs><g fill="none" fill-rule="nonzero" stroke="none" stroke-width="none" stroke-linecap="butt" stroke-linejoin="none" stroke-miterlimit="10" stroke-dasharray="" stroke-dashoffset="0" font-family="none" font-weight="none" font-size="none" text-anchor="none" style="mix-blend-mode: normal"><path transform="scale(5.33333,5.33333)" d="M45.998,33.782c0.009,0.142 -0.04,0.289 -0.135,0.395c-4.592,5.144 -11.181,5.751 -12.588,5.823c-0.167,0.009 -0.326,-0.065 -0.427,-0.199l-1.282,-1.709c-0.1,-0.134 -0.046,-0.322 0.111,-0.379c2.705,-0.987 5.716,-2.7 8.332,-5.706c-3.24,2.45 -8.129,4.993 -16.009,4.993c-7.88,0 -12.769,-2.543 -16.01,-4.993c2.615,3.006 5.627,4.72 8.332,5.706c0.157,0.057 0.211,0.245 0.111,0.379l-1.282,1.709c-0.1,0.134 -0.26,0.207 -0.427,0.199c-1.406,-0.071 -7.996,-0.679 -12.588,-5.823c-0.095,-0.106 -0.144,-0.253 -0.135,-0.395c0.843,-13.244 5.184,-20.525 5.892,-21.632c0.066,-0.102 0.139,-0.182 0.236,-0.255c0.769,-0.578 4.671,-3.339 9.665,-3.875c0.009,-0.001 0.048,-0.003 0.057,-0.003c0.099,0 0.183,0.057 0.224,0.14l0.269,0.538h0.001c0.017,0.033 0.026,0.071 0.026,0.111c0,0.109 -0.07,0.202 -0.168,0.236c-0.006,0.002 -0.048,0.01 -0.063,0.014c-4.267,1.028 -6.863,2.89 -9.149,4.945c4.048,-2.065 8.044,-4.001 15.009,-4.001c6.965,0 10.962,1.935 15.009,4.001c-2.286,-2.055 -4.882,-3.917 -9.149,-4.945c-0.015,-0.003 -0.057,-0.012 -0.063,-0.014c-0.098,-0.034 -0.168,-0.127 -0.168,-0.236c0,-0.04 0.009,-0.078 0.026,-0.111h0.001l0.269,-0.538c0.041,-0.083 0.126,-0.14 0.224,-0.14c0.009,0 0.047,0.002 0.057,0.003c4.994,0.536 8.896,3.297 9.665,3.875c0.097,0.073 0.171,0.153 0.236,0.255c0.708,1.107 5.049,8.388 5.891,21.632z" id="strokeMainSVG" fill="#000000" stroke="#000000" stroke-width="2" stroke-linejoin="round"></path><g transform="scale(5.33333,5.33333)" stroke="none" stroke-width="1" stroke-linejoin="miter"><path d="M40.107,12.15c-0.065,-0.102 -0.139,-0.182 -0.236,-0.255c-0.769,-0.578 -4.671,-3.339 -9.665,-3.875c-0.01,-0.001 -0.048,-0.003 -0.057,-0.003c-0.098,0 -0.183,0.057 -0.224,0.14l-0.269,0.538h-0.001c-0.017,0.033 -0.026,0.071 -0.026,0.111c0,0.109 0.07,0.202 0.168,0.236c0.006,0.002 0.048,0.011 0.063,0.014c4.267,1.028 6.863,2.89 9.149,4.945c-4.047,-2.066 -8.044,-4.001 -15.009,-4.001c-6.965,0 -10.961,1.936 -15.009,4.001c2.286,-2.055 4.882,-3.917 9.149,-4.945c0.015,-0.004 0.057,-0.012 0.063,-0.014c0.098,-0.034 0.168,-0.127 0.168,-0.236c0,-0.04 -0.009,-0.078 -0.026,-0.111h-0.001l-0.269,-0.538c-0.041,-0.083 -0.125,-0.14 -0.224,-0.14c-0.009,0 -0.048,0.002 -0.057,0.003c-4.994,0.536 -8.896,3.297 -9.665,3.875c-0.097,0.073 -0.17,0.153 -0.236,0.255c-0.708,1.107 -5.049,8.388 -5.892,21.632c-0.009,0.142 0.04,0.289 0.135,0.395c4.592,5.144 11.182,5.752 12.588,5.823c0.167,0.008 0.327,-0.065 0.427,-0.199l1.282,-1.709c0.1,-0.134 0.046,-0.322 -0.111,-0.379c-2.705,-0.986 -5.717,-2.7 -8.332,-5.706c3.241,2.45 8.13,4.993 16.01,4.993c7.88,0 12.769,-2.543 16.009,-4.993c-2.616,3.006 -5.627,4.719 -8.332,5.706c-0.157,0.057 -0.211,0.245 -0.111,0.379l1.282,1.709c0.101,0.134 0.26,0.208 0.427,0.199c1.407,-0.072 7.996,-0.679 12.588,-5.823c0.095,-0.106 0.144,-0.253 0.135,-0.395c-0.842,-13.244 -5.183,-20.525 -5.891,-21.632z" fill="url(#color-1)"></path><ellipse cx="30.5" cy="26" rx="4.5" ry="5" fill="#000000" opacity="0.05"></ellipse><ellipse cx="30.5" cy="26" rx="4" ry="4.5" fill="#000000" opacity="0.05"></ellipse><ellipse cx="30.5" cy="26" rx="3.5" ry="4" fill="#ffffff"></ellipse><ellipse cx="17.5" cy="26" rx="4.5" ry="5" fill="#000000" opacity="0.05"></ellipse><ellipse cx="17.5" cy="26" rx="4" ry="4.5" fill="#000000" opacity="0.05"></ellipse><ellipse cx="17.5" cy="26" rx="3.5" ry="4" fill="#ffffff"></ellipse></g></g></svg>