<svg xmlns="http://www.w3.org/2000/svg" xmlns:xlink="http://www.w3.org/1999/xlink" viewBox="0,0,256,256" width="48px" height="48px" fill-rule="nonzero"><g fill="none" fill-rule="nonzero" stroke="none" stroke-width="none" stroke-linecap="butt" stroke-linejoin="none" stroke-miterlimit="10" stroke-dasharray="" stroke-dashoffset="0" font-family="none" font-weight="none" font-size="none" text-anchor="none" style="mix-blend-mode: normal"><path transform="scale(8.53333,8.53333)" d="M27,15c0,5.236 -3.359,9.676 -8.035,11.315c0.012,-0.089 0.035,-0.164 0.035,-0.268v-2.734c0,-1.213 -0.801,-2.823 -1.899,-3.396c3.99,-0.413 5.894,-2.4 5.894,-5.097c0,-1.16 -0.492,-2.281 -1.328,-3.226c0.279,-0.938 0.63,-2.863 -0.102,-3.594c-1.802,0 -2.89,1.17 -3.148,1.483c-0.898,-0.309 -1.886,-0.483 -2.922,-0.483c-1.034,0 -2.018,0.174 -2.914,0.481c-0.261,-0.315 -1.348,-1.481 -3.146,-1.481c-0.729,0.73 -0.382,2.647 -0.106,3.587c-0.841,0.947 -1.336,2.071 -1.336,3.233c0,2.699 1.907,4.687 5.903,5.098c-0.693,0.362 -1.26,1.129 -1.588,1.962c-0.61,0.096 -1.258,0.121 -1.691,0.121c-0.893,0 -1.118,-0.142 -1.596,-0.769c-0.48,-0.626 -0.99,-1.048 -1.605,-1.222c-0.333,-0.035 -0.553,0.224 -0.264,0.451c0.974,0.682 1.042,1.797 1.435,2.526c0.354,0.656 1.084,1.009 1.905,1.009c0.205,0 1.021,0 1.508,0v2.051c0,0.233 0.036,0.421 0.092,0.583c-5.22,-1.302 -9.092,-6.007 -9.092,-11.63c0,-6.627 5.373,-12 12,-12c6.627,0 12,5.373 12,12z" id="strokeMainSVG" fill="#000000" stroke="#000000" stroke-width="2" stroke-linejoin="round"></path><g transform="scale(8.53333,8.53333)" fill="#8c9eff" stroke="none" stroke-width="1" stroke-linejoin="miter"><path d="M15,3c-6.627,0 -12,5.373 -12,12c0,5.623 3.872,10.328 9.092,11.63c-0.056,-0.162 -0.092,-0.35 -0.092,-0.583v-2.051c-0.487,0 -1.303,0 -1.508,0c-0.821,0 -1.551,-0.353 -1.905,-1.009c-0.393,-0.729 -0.461,-1.844 -1.435,-2.526c-0.289,-0.227 -0.069,-0.486 0.264,-0.451c0.615,0.174 1.125,0.596 1.605,1.222c0.478,0.627 0.703,0.769 1.596,0.769c0.433,0 1.081,-0.025 1.691,-0.121c0.328,-0.833 0.895,-1.6 1.588,-1.962c-3.996,-0.411 -5.903,-2.399 -5.903,-5.098c0,-1.162 0.495,-2.286 1.336,-3.233c-0.276,-0.94 -0.623,-2.857 0.106,-3.587c1.798,0 2.885,1.166 3.146,1.481c0.896,-0.307 1.88,-0.481 2.914,-0.481c1.036,0 2.024,0.174 2.922,0.483c0.258,-0.313 1.346,-1.483 3.148,-1.483c0.732,0.731 0.381,2.656 0.102,3.594c0.836,0.945 1.328,2.066 1.328,3.226c0,2.697 -1.904,4.684 -5.894,5.097c1.098,0.573 1.899,2.183 1.899,3.396v2.734c0,0.104 -0.023,0.179 -0.035,0.268c4.676,-1.639 8.035,-6.079 8.035,-11.315c0,-6.627 -5.373,-12 -12,-12z"></path></g></g></svg>